<svg version="1.1" id="Layer_1" xmlns="http://www.w3.org/2000/svg" xmlns:xlink="http://www.w3.org/1999/xlink" x="0px" y="0px"
	 width="100%" viewBox="0 0 1000 1080" enable-background="new 0 0 1000 1080" xml:space="preserve">
<path fill="#000000" opacity="1.000000" stroke="none" 
	d="
M997.545776,1.218604 
	C998.444458,1.000000 998.888916,1.000000 999.666687,1.000000 
	C1000.932739,2.728571 1000.473206,4.599658 1000.473328,6.397233 
	C1000.496704,335.480316 1000.496643,664.563416 1000.475403,993.646484 
	C1000.475281,995.448792 1000.898804,997.316101 999.649658,999.397827 
	C996.237427,1001.031189 993.028564,1000.460144 989.897644,1000.460449 
	C682.482483,1000.489807 375.067322,1000.487610 67.652176,1000.487549 
	C48.324177,1000.487549 28.996159,1000.500244 9.668200,1000.471558 
	C7.352301,1000.468140 4.990110,1000.784119 2.351688,999.561707 
	C1.117527,997.502197 1.523914,995.638184 1.523802,993.833191 
	C1.503358,665.068176 1.503014,336.303192 1.511896,7.538200 
	C1.512079,0.792649 0.780362,1.510708 7.773674,1.510551 
	C335.372253,1.503173 662.970825,1.504293 990.569397,1.500689 
	C992.743408,1.500665 994.918640,1.568639 997.545776,1.218604 
z"/>
<path fill="#121324" opacity="1.000000" stroke="none" 
	d="
M1000.589722,1000.723633 
	C1001.000000,1026.657104 1000.963501,1052.314453 1001.059448,1077.971191 
	C1001.068481,1080.398438 1000.607056,1081.514771 998.027222,1081.018433 
	C997.384583,1080.894897 996.697937,1081.000000 996.031555,1081.000000 
	C665.987366,1081.000000 335.943176,1080.987549 5.899045,1081.131226 
	C1.401781,1081.133179 0.871387,1079.873047 0.902561,1075.901978 
	C1.096118,1051.245850 1.000000,1026.587646 1.000000,1001.465027 
	C3.421762,999.324463 6.178172,1000.035400 8.781719,1000.034790 
	C171.611420,999.998779 334.441101,999.999756 497.270813,1000.003418 
	C663.933716,1000.007202 830.596680,999.987610 997.755615,1000.027710 
	C998.917725,1000.064880 999.560364,1000.199951 1000.589722,1000.723633 
z"/>
<path fill="#3A3A3A" opacity="1.000000" stroke="none" 
	d="
M997.531372,1.000000 
	C996.188843,2.829515 993.891663,1.961118 991.836853,1.961383 
	C664.870361,2.003422 337.903809,2.000596 10.937287,2.000236 
	C2.006603,2.000226 2.001566,2.003432 2.001523,11.036842 
	C1.999977,338.336639 1.999352,665.636475 2.000352,992.936279 
	C2.000357,994.602417 2.024935,996.268616 2.080653,998.392090 
	C1.954181,999.009888 1.785094,999.170227 1.308003,999.165283 
	C1.000000,667.905945 1.010026,336.811859 0.885475,5.717844 
	C0.883925,1.597871 1.791745,0.892411 5.780154,0.893802 
	C336.207642,1.009007 666.635132,1.000000 997.531372,1.000000 
z"/>
<path fill="#ECECEC" opacity="1.000000" stroke="none" 
	d="
M1001.000000,1000.537354 
	C1000.681824,1001.001221 1000.372803,1000.948425 999.837036,1000.844604 
	C999.388977,1000.798340 999.176941,1000.749146 998.770752,1000.437195 
	C998.587219,999.956970 998.597778,999.739563 998.864746,999.319946 
	C1000.237976,987.005981 999.583069,974.865906 999.585327,962.742920 
	C999.628601,726.930786 999.599670,491.118683 999.594849,255.306580 
	C999.593140,171.814331 999.616211,88.322075 999.624329,4.829822 
	C999.624451,3.831055 999.576843,2.832284 999.775757,1.416758 
	C1000.307678,1.217807 1001.042236,0.494838 1001.010315,1.499689 
	C1000.968079,2.831116 1001.000000,4.164896 1001.000000,5.497662 
	C1001.000000,337.023346 1001.000000,668.549011 1001.000000,1000.537354 
z"/>
<path fill="#6B6B6B" opacity="1.000000" stroke="none" 
	d="
M998.648560,999.063354 
	C999.121216,999.117798 999.311157,999.489441 999.221741,999.677979 
	C997.822937,1000.986328 996.251648,1000.467163 994.808777,1000.467285 
	C664.341003,1000.490234 333.873230,1000.496216 3.405450,1000.489380 
	C2.903543,1000.489380 2.403422,1000.456848 1.451349,1000.216614 
	C1.000000,1000.000000 1.000000,999.500000 1.000000,999.250000 
	C1.186588,998.970520 1.373176,998.940979 1.841516,998.880493 
	C4.453133,998.895325 6.782997,998.981079 9.112864,998.981201 
	C338.800537,998.994446 668.488220,999.001587 998.648560,999.063354 
z"/>
<path fill="#0F0F0F" opacity="1.000000" stroke="none" 
	d="
M1.000000,1000.250000 
	C332.400452,1000.002258 663.800903,1000.004578 995.201355,1000.005676 
	C996.200928,1000.005676 997.200500,999.987976 998.666199,999.922607 
	C999.233582,1000.018921 999.334778,1000.171265 999.518555,1000.585632 
	C997.936890,1000.898438 996.272644,1000.993774 994.608459,1000.993774 
	C663.708069,1000.997314 332.807648,1000.994019 1.453621,1000.995483 
	C1.000000,1001.000000 1.000000,1000.500000 1.000000,1000.250000 
z"/>
<path fill="#FEDD17" opacity="1.000000" stroke="none" 
	d="
M51.090164,193.999969 
	C51.472256,174.181122 50.218815,154.838318 51.864063,135.538986 
	C55.458492,93.375145 91.799469,56.390102 133.945892,51.919708 
	C139.420212,51.339058 144.893478,51.067295 150.401520,51.067886 
	C385.067841,51.093109 619.734131,51.089142 854.400452,51.089710 
	C907.181152,51.089836 949.716675,93.152817 949.733765,145.827576 
	C949.810425,382.493866 949.802673,619.160156 949.737061,855.826477 
	C949.723450,904.730957 910.861938,945.983459 862.039612,949.319763 
	C857.724365,949.614624 853.390015,949.756287 849.064575,949.756592 
	C615.231628,949.773071 381.398651,949.773682 147.565689,949.757080 
	C99.304565,949.753662 60.443798,916.975525 52.345531,869.418640 
	C51.339588,863.511292 51.075474,857.508484 51.075939,851.497375 
	C51.092846,632.498230 51.090157,413.499115 51.090164,193.999969 
z"/>
<path fill="#ECECEC" opacity="1.000000" stroke="none" 
	d="
M130.704773,1034.237427 
	C130.034958,1037.333496 132.140503,1037.961670 133.972351,1038.670410 
	C135.672394,1039.328125 137.503815,1039.643921 139.209961,1040.288696 
	C142.587006,1041.564941 145.060013,1043.782471 144.738190,1047.673218 
	C144.428024,1051.422974 141.907318,1053.595825 138.409012,1054.550293 
	C135.291626,1055.400879 132.136612,1055.282593 129.057312,1054.263916 
	C127.827545,1053.857056 125.609077,1054.333374 126.441681,1051.779419 
	C127.097046,1049.769165 128.580826,1050.732056 129.736450,1051.063110 
	C132.507294,1051.856934 135.230423,1052.376343 138.035812,1051.188354 
	C139.673813,1050.494629 140.966187,1049.591675 141.045105,1047.630615 
	C141.127808,1045.575073 139.723190,1044.684082 138.099396,1044.087646 
	C136.073837,1043.343628 133.984436,1042.774414 131.954758,1042.040649 
	C128.692368,1040.861328 126.441467,1038.862549 126.925919,1035.020264 
	C127.431526,1031.010254 130.268768,1029.551758 133.825012,1029.009766 
	C136.782562,1028.559082 139.358734,1029.741211 141.938370,1030.954834 
	C143.200012,1031.548340 143.650681,1032.278687 143.144714,1033.675293 
	C142.361771,1035.836548 141.291199,1034.259033 140.498337,1033.864746 
	C137.277985,1032.262817 134.119064,1030.731812 130.704773,1034.237427 
z"/>
<path fill="#E8E8EA" opacity="1.000000" stroke="none" 
	d="
M201.855042,1039.128052 
	C204.353897,1036.947998 206.008926,1033.758179 209.872879,1035.351807 
	C208.340775,1038.834351 202.933899,1040.105103 203.433182,1043.590576 
	C203.892838,1046.799438 207.309479,1049.582031 209.411545,1052.560791 
	C209.873749,1053.215698 210.284897,1053.906738 210.751038,1054.630005 
	C207.987732,1055.619141 206.160934,1054.968994 204.818863,1052.508301 
	C203.792007,1050.625488 202.392334,1048.947754 201.181534,1047.162964 
	C200.803253,1046.605347 200.472870,1046.062744 199.654892,1046.262207 
	C198.783218,1046.474854 198.807999,1047.246338 198.774506,1047.843872 
	C198.672455,1049.665283 198.672623,1051.492798 198.653381,1053.318115 
	C198.640137,1054.576294 197.971176,1055.013306 196.780106,1055.036133 
	C195.522766,1055.060303 195.016342,1054.509033 195.018112,1053.287231 
	C195.028885,1045.814087 195.022476,1038.340942 195.011932,1030.867798 
	C195.010361,1029.757080 195.251389,1028.980103 196.623383,1028.960449 
	C198.117310,1028.939087 198.701279,1029.594849 198.687347,1031.040894 
	C198.661743,1033.697632 198.556366,1036.365967 198.753204,1039.009521 
	C199.046051,1042.942139 200.544586,1039.849365 201.855042,1039.128052 
z"/>
<path fill="#EFEFF1" opacity="1.000000" stroke="none" 
	d="
M169.253052,1054.693604 
	C161.283356,1055.276245 157.354355,1051.792725 157.497482,1044.743774 
	C157.625687,1038.431274 161.643677,1034.414917 167.386459,1034.988037 
	C171.703247,1035.418701 174.226868,1037.935669 175.117325,1042.129150 
	C176.344925,1047.910278 174.725891,1051.553467 169.253052,1054.693604 
z"/>
<path fill="#DBDCE1" opacity="1.000000" stroke="none" 
	d="
M46.506203,1039.424805 
	C48.052181,1035.677002 48.556446,1031.894043 51.092060,1028.450928 
	C52.562710,1030.620361 51.151283,1032.058105 50.727512,1033.353394 
	C48.670067,1039.642456 46.351845,1045.845703 44.156483,1052.090088 
	C43.668362,1053.478394 43.547470,1055.067139 41.474880,1055.074219 
	C39.556248,1055.080688 39.527130,1053.447144 39.128059,1052.342529 
	C36.385395,1044.750854 33.750874,1037.119995 31.768700,1029.191162 
	C36.655853,1035.944336 37.970966,1044.354736 41.818687,1052.491943 
	C43.477566,1047.816040 44.903641,1043.796265 46.506203,1039.424805 
z"/>
<path fill="#EFEFF1" opacity="1.000000" stroke="none" 
	d="
M185.481537,1038.418701 
	C181.040314,1040.633179 180.629669,1044.037231 181.891479,1047.876587 
	C183.109650,1051.583252 185.833710,1052.593628 189.397491,1051.419800 
	C190.578186,1051.030884 191.301147,1051.200684 191.757431,1052.345337 
	C192.442566,1054.064087 191.054520,1054.413574 190.006119,1054.653076 
	C186.008926,1055.566895 182.376831,1055.048340 179.729965,1051.488770 
	C177.268631,1048.178833 177.132965,1042.168945 179.501938,1038.767944 
	C182.020248,1035.152588 185.618958,1034.403809 189.662384,1035.283813 
	C190.621918,1035.492554 192.237518,1035.500610 191.853790,1037.300049 
	C191.437881,1039.250122 190.223053,1038.854980 188.805832,1038.394409 
	C187.903671,1038.101318 186.843369,1038.294800 185.481537,1038.418701 
z"/>
<path fill="#E0E1E4" opacity="1.000000" stroke="none" 
	d="
M51.001869,1042.502686 
	C53.301563,1036.550537 56.376232,1034.135498 60.372787,1035.070435 
	C64.604424,1036.060303 65.879051,1039.352417 66.401413,1043.239014 
	C66.706276,1045.507446 65.878365,1046.200317 63.714485,1046.093872 
	C61.062950,1045.963257 58.393284,1046.179810 55.744164,1046.026611 
	C52.308071,1045.828003 52.705479,1047.451416 53.817886,1049.612671 
	C55.102207,1052.107910 57.191715,1053.265259 59.910679,1053.079956 
	C61.957699,1052.940186 63.983330,1052.486938 66.802162,1052.052490 
	C63.861710,1055.664185 60.545059,1055.382080 57.443146,1054.752441 
	C53.871212,1054.027344 51.765350,1051.399170 51.057961,1047.880127 
	C50.737034,1046.283691 50.970165,1044.575928 51.001869,1042.502686 
z"/>
<path fill="#E0E1E4" opacity="1.000000" stroke="none" 
	d="
M107.134804,1054.585938 
	C102.477226,1055.680054 98.716301,1054.819458 96.442253,1050.846802 
	C94.240723,1047.001099 94.292763,1042.862061 96.555550,1039.015991 
	C98.402557,1035.876709 101.398918,1034.594727 105.010162,1034.998169 
	C109.360817,1035.484131 111.740196,1038.223389 112.755005,1042.257568 
	C114.006462,1047.232544 112.194542,1051.310181 107.134804,1054.585938 
z"/>
<path fill="#F7F7F8" opacity="1.000000" stroke="none" 
	d="
M147.747437,1037.043579 
	C147.761063,1034.721069 147.759155,1032.888794 147.759949,1031.056396 
	C147.760391,1030.016724 147.842255,1029.104004 149.246338,1028.997925 
	C150.952621,1028.868896 151.205902,1029.853760 151.074005,1031.168945 
	C150.834305,1033.559082 150.978394,1035.534790 154.285660,1035.043213 
	C155.172592,1034.911255 155.830826,1035.451538 155.769196,1036.532837 
	C155.725891,1037.292480 155.386978,1037.827148 154.637039,1037.871094 
	C152.652390,1037.987671 150.383926,1037.687500 151.081909,1040.917114 
	C151.839783,1044.423706 149.195007,1048.648315 153.374969,1051.458618 
	C154.213379,1052.022339 156.609695,1051.319092 155.505325,1053.726196 
	C154.561981,1055.782471 153.057602,1054.886841 151.705719,1054.353638 
	C149.087280,1053.320679 147.862946,1051.269043 147.811584,1048.525757 
	C147.742981,1044.862549 147.755417,1041.197754 147.747437,1037.043579 
z"/>
<path fill="#D7D8DD" opacity="1.000000" stroke="none" 
	d="
M70.438690,1039.658203 
	C74.703857,1034.385254 78.043419,1033.657715 83.945915,1036.872192 
	C80.620262,1037.938843 77.377510,1035.908569 74.672058,1037.846802 
	C71.908943,1039.826294 71.235962,1042.706543 71.391563,1045.772217 
	C71.671906,1051.295654 73.880684,1052.532837 84.414589,1053.123901 
	C80.769005,1056.003662 77.285591,1055.610229 74.027359,1054.029663 
	C70.115601,1052.131958 69.145164,1048.342529 69.210800,1044.336060 
	C69.234665,1042.879150 69.867210,1041.432251 70.438690,1039.658203 
z"/>
<path fill="#D7D8DD" opacity="1.000000" stroke="none" 
	d="
M91.658943,1036.964355 
	C88.274590,1040.075562 88.721054,1049.852417 91.976616,1052.857544 
	C92.471092,1053.313965 93.070305,1053.559692 92.728142,1054.366333 
	C88.903519,1053.972900 87.869553,1053.458618 87.585518,1049.612061 
	C87.123085,1043.349731 87.276398,1037.041138 87.201447,1030.751709 
	C87.194206,1030.143921 87.097565,1029.375610 87.976700,1029.150635 
	C88.763542,1028.949219 89.459541,1029.378784 89.319450,1030.048340 
	C88.651497,1033.241211 90.283829,1034.874512 92.983551,1035.893555 
	C92.696060,1036.239014 92.408569,1036.584351 91.658943,1036.964355 
z"/>
<path fill="#E8E8EA" opacity="1.000000" stroke="none" 
	d="
M875.071167,1048.429321 
	C874.597961,1050.519775 875.712341,1052.456299 873.889160,1054.254028 
	C872.264282,1052.487915 873.198853,1050.457275 872.980347,1048.699951 
	C872.811279,1047.340332 872.892944,1045.915527 870.965698,1045.935303 
	C869.429016,1045.951172 868.398865,1046.838257 868.156189,1048.269287 
	C867.839478,1050.136597 867.808228,1052.052368 867.197083,1053.939331 
	C865.146118,1051.034180 866.238220,1047.824829 866.075073,1044.765503 
	C868.438782,1044.855103 870.725220,1043.537720 873.111694,1044.337036 
	C873.680176,1044.527222 874.347656,1045.439575 874.629211,1045.305542 
	C876.565979,1044.382690 878.676392,1042.669189 880.190857,1045.452026 
	C881.632019,1048.100098 881.161804,1051.074951 880.345215,1054.592651 
	C878.178345,1052.577881 879.268250,1050.513916 878.979065,1048.792480 
	C878.791870,1047.677734 879.120605,1046.244751 877.587708,1045.990601 
	C876.222168,1045.764404 875.540649,1046.820435 875.071167,1048.429321 
z"/>
<path fill="#E0E1E4" opacity="1.000000" stroke="none" 
	d="
M930.972961,1051.799072 
	C929.618896,1048.705688 929.600769,1045.941528 930.568054,1043.175293 
	C931.576660,1040.290649 933.762024,1039.380615 936.508728,1040.221191 
	C939.111816,1041.017700 939.769714,1043.380737 939.940186,1045.773682 
	C940.143311,1048.627319 940.151794,1051.606079 937.360474,1053.357300 
	C935.088989,1054.782349 932.908081,1054.198486 930.972961,1051.799072 
z"/>
<path fill="#DBDCE1" opacity="1.000000" stroke="none" 
	d="
M900.780273,1043.165771 
	C901.588135,1037.160767 905.435486,1040.971191 908.026184,1040.013062 
	C907.286072,1043.397827 903.692871,1040.392090 902.739990,1043.411133 
	C905.881104,1044.188721 909.237610,1045.052734 908.989807,1049.305298 
	C908.861511,1051.506714 907.695251,1053.126221 905.633240,1053.797729 
	C903.456299,1054.506836 901.563049,1053.938721 900.185242,1052.090576 
	C901.067139,1050.821167 901.681946,1051.228638 902.486511,1051.617920 
	C903.965027,1052.333374 905.387451,1052.250610 906.360474,1050.640747 
	C907.018738,1049.551880 907.069153,1048.490845 906.401917,1047.370728 
	C905.591980,1046.010864 904.260803,1045.507690 902.987671,1046.065796 
	C899.380432,1047.647217 900.662720,1045.122314 900.780273,1043.165771 
z"/>
<path fill="#DBDCE1" opacity="1.000000" stroke="none" 
	d="
M946.118042,1041.889648 
	C943.688049,1045.238037 947.074890,1043.643921 947.884277,1044.154541 
	C949.883301,1045.415283 951.189331,1046.929688 950.993591,1049.367554 
	C950.819092,1051.540894 949.686768,1053.204346 947.588867,1053.805664 
	C945.469604,1054.413208 943.483032,1054.074341 941.894470,1051.456665 
	C944.467468,1051.130859 947.264221,1053.443848 948.624390,1050.191162 
	C949.100708,1049.052002 948.973206,1047.932495 948.131775,1046.940430 
	C946.493164,1045.008667 944.555725,1046.296021 942.718994,1046.722412 
	C942.881470,1039.543091 942.881470,1039.543091 949.910217,1040.308228 
	C949.539307,1042.586670 947.702148,1041.530029 946.118042,1041.889648 
z"/>
<path fill="#D7D8DD" opacity="1.000000" stroke="none" 
	d="
M737.877075,1051.851074 
	C736.867859,1053.937988 735.724854,1055.453613 734.552856,1052.604370 
	C732.905762,1048.600586 731.620667,1044.447876 730.624329,1040.174072 
	C734.426697,1042.160034 733.526062,1046.582275 735.853149,1049.683838 
	C738.609009,1046.988281 737.584656,1042.204346 741.566467,1039.296509 
	C741.147583,1044.174683 738.936768,1047.654785 737.877075,1051.851074 
z"/>
<path fill="#D7D8DD" opacity="1.000000" stroke="none" 
	d="
M746.342407,1044.097656 
	C747.892517,1043.905762 749.049072,1043.837891 750.059631,1044.579346 
	C751.178345,1045.400269 752.089844,1046.497681 751.887756,1047.880127 
	C751.591858,1049.905029 749.824951,1048.869873 748.695923,1049.035156 
	C747.609497,1049.194214 746.481567,1049.069458 745.183533,1049.069458 
	C745.860779,1053.499146 749.243103,1051.442993 752.335449,1052.223633 
	C748.831177,1054.674683 746.162537,1054.851440 744.094238,1052.029663 
	C741.865479,1048.989136 742.489380,1046.136475 746.342407,1044.097656 
z"/>
<path fill="#DBDCE1" opacity="1.000000" stroke="none" 
	d="
M798.001099,1041.501221 
	C797.476990,1043.093384 796.697083,1042.161743 796.000671,1042.112305 
	C794.534790,1042.008179 792.718567,1041.513794 792.259888,1043.451172 
	C791.862183,1045.131104 793.607483,1045.467285 794.779846,1045.974121 
	C796.798584,1046.846802 798.886719,1047.703613 798.921448,1050.341675 
	C798.943298,1052.002808 797.863770,1053.206299 796.361328,1053.671997 
	C793.940063,1054.422485 791.635315,1054.273193 789.824158,1052.015381 
	C790.353271,1051.575439 790.622192,1051.180054 790.821533,1051.212646 
	C792.803467,1051.534668 795.448669,1053.456177 796.485962,1050.763306 
	C797.463440,1048.225830 794.174561,1048.188599 792.663696,1047.232910 
	C790.843262,1046.081177 789.078857,1044.730835 790.305359,1042.511841 
	C792.101074,1039.263184 794.931213,1039.181396 798.001099,1041.501221 
z"/>
<path fill="#DBDCE1" opacity="1.000000" stroke="none" 
	d="
M812.767944,1053.980591 
	C808.991943,1053.964722 807.050903,1052.248291 807.001221,1048.867065 
	C806.962219,1046.204102 808.573547,1044.506104 811.141541,1044.047607 
	C813.769104,1043.578491 815.785339,1044.810669 816.615601,1047.287842 
	C817.701416,1050.527344 816.220032,1052.711304 812.767944,1053.980591 
z"/>
<path fill="#DBDCE1" opacity="1.000000" stroke="none" 
	d="
M775.198242,1053.995361 
	C771.507324,1052.639771 770.051880,1050.302490 771.448486,1046.903198 
	C772.444519,1044.478882 774.617432,1043.460571 777.168030,1044.125488 
	C779.433838,1044.716309 780.973633,1046.371460 780.927795,1048.796509 
	C780.864685,1052.130371 778.968750,1053.918945 775.198242,1053.995361 
z"/>
<path fill="#E8E8EA" opacity="1.000000" stroke="none" 
	d="
M115.917999,1048.874268 
	C115.920189,1044.750732 115.897591,1041.104858 115.945236,1037.460083 
	C115.954926,1036.718628 115.574677,1035.818115 116.470047,1035.263062 
	C118.560486,1038.853516 121.508072,1034.211426 125.057457,1036.145386 
	C113.040115,1039.315918 120.322090,1048.888672 117.060097,1055.225098 
	C115.148666,1053.404419 116.263466,1051.204590 115.917999,1048.874268 
z"/>
<path fill="#DBDCE1" opacity="1.000000" stroke="none" 
	d="
M862.497925,1052.504639 
	C858.934204,1055.084351 856.112000,1054.397339 854.414490,1050.951172 
	C853.041199,1048.162964 854.206665,1045.604126 857.021729,1044.384888 
	C859.899292,1043.138550 862.183533,1044.338867 863.568115,1047.114624 
	C864.496948,1048.976685 863.872375,1050.651123 862.497925,1052.504639 
z"/>
<path fill="#E0E1E4" opacity="1.000000" stroke="none" 
	d="
M829.842468,1040.100098 
	C831.822144,1042.113892 830.357544,1044.589844 831.283508,1046.747314 
	C833.703125,1047.508423 833.511108,1043.407837 836.397766,1044.343872 
	C832.973999,1047.634766 834.731323,1050.603638 837.324402,1053.755981 
	C833.455505,1054.190186 834.009827,1050.230225 831.732422,1049.330444 
	C829.623108,1050.101807 832.394653,1053.206177 829.260986,1054.098267 
	C828.798706,1049.320068 828.594910,1044.737305 829.842468,1040.100098 
z"/>
<path fill="#D7D8DD" opacity="1.000000" stroke="none" 
	d="
M914.040161,1053.215576 
	C912.358215,1054.372314 911.547974,1054.129028 912.347351,1052.297485 
	C913.790344,1048.991455 915.370117,1045.745239 916.859619,1042.545288 
	C915.019897,1040.915405 912.419556,1042.958740 910.509399,1040.339600 
	C913.798218,1040.339600 916.595398,1040.339600 919.678894,1040.339600 
	C918.581543,1044.838135 916.020325,1048.700195 914.040161,1053.215576 
z"/>
<path fill="#E0E1E4" opacity="1.000000" stroke="none" 
	d="
M957.948242,1043.326416 
	C957.218750,1041.143188 958.289673,1040.109741 959.834839,1040.101074 
	C961.586487,1040.091309 961.031494,1041.836548 960.924866,1042.781982 
	C960.507568,1046.483032 962.545898,1050.329346 960.032837,1054.504883 
	C958.964722,1051.849121 957.596558,1050.119873 954.640442,1050.674316 
	C952.972229,1050.987305 952.752136,1049.836060 953.753601,1048.218994 
	C956.405884,1047.516235 957.961243,1046.311279 957.948242,1043.326416 
z"/>
<path fill="#D7D8DD" opacity="1.000000" stroke="none" 
	d="
M759.808105,1045.938232 
	C757.193604,1045.926880 755.829529,1047.039185 756.121826,1049.275024 
	C756.682373,1053.563232 760.380371,1051.456421 763.545776,1052.130127 
	C760.354614,1054.578247 757.852173,1054.753296 755.470825,1052.553955 
	C753.523499,1050.755615 753.317505,1048.483154 754.807190,1046.244019 
	C756.290771,1044.013916 758.469788,1043.490479 760.933167,1044.233154 
	C761.589172,1044.430908 762.667419,1044.853638 762.004272,1045.883545 
	C761.813293,1046.180298 760.821472,1045.961426 759.808105,1045.938232 
z"/>
<path fill="#D7D8DD" opacity="1.000000" stroke="none" 
	d="
M849.815125,1045.931763 
	C846.902710,1045.978271 845.630493,1047.345093 846.202759,1049.767944 
	C847.096863,1053.553101 850.517700,1051.366089 853.502258,1052.130859 
	C850.379578,1054.599731 847.852966,1054.753540 845.481506,1052.561523 
	C843.554199,1050.780029 843.302246,1048.492920 844.814270,1046.231567 
	C846.314575,1043.987671 848.496765,1043.511963 850.957642,1044.230225 
	C851.641785,1044.429932 852.671448,1044.871094 852.018311,1045.884399 
	C851.826233,1046.182617 850.831116,1045.963257 849.815125,1045.931763 
z"/>
<path fill="#D7D8DD" opacity="1.000000" stroke="none" 
	d="
M825.266724,1052.027222 
	C826.263000,1051.965698 827.183716,1051.693237 827.479858,1052.008057 
	C828.111145,1052.679321 827.302917,1053.107666 826.764648,1053.380005 
	C824.210022,1054.672852 821.840515,1054.331787 820.054382,1052.096558 
	C818.230530,1049.813965 818.425415,1047.343140 820.558228,1045.382935 
	C822.793274,1043.328857 825.186401,1043.379028 828.060364,1045.744507 
	C825.192627,1046.573730 821.556580,1044.536377 821.130920,1048.678955 
	C820.868774,1051.229736 822.477661,1052.243164 825.266724,1052.027222 
z"/>
<path fill="#E8E8EA" opacity="1.000000" stroke="none" 
	d="
M895.972290,1050.459595 
	C896.620178,1051.752441 897.260071,1052.603760 897.950256,1053.521973 
	C896.045227,1054.367065 894.256592,1054.045288 891.844910,1053.801270 
	C893.563721,1051.988037 894.384338,1050.162598 893.989075,1047.924927 
	C893.659119,1046.056641 894.973267,1043.321411 890.998840,1043.532104 
	C891.862549,1042.527832 892.505066,1041.589600 893.331787,1040.859863 
	C894.971802,1039.412598 895.970764,1039.674194 895.960815,1042.052734 
	C895.949646,1044.707764 895.962097,1047.362915 895.972290,1050.459595 
z"/>
<path fill="#E8E8EA" opacity="1.000000" stroke="none" 
	d="
M926.623413,1053.999023 
	C924.895508,1054.036499 923.593933,1054.036499 922.091064,1054.036499 
	C925.054199,1049.305786 924.576538,1044.303101 921.221619,1043.293457 
	C922.414978,1041.991699 923.190918,1039.545044 925.214966,1040.306396 
	C926.892029,1040.937134 925.819702,1043.235962 925.918335,1044.778931 
	C926.115784,1047.867065 925.606750,1051.028564 926.623413,1053.999023 
z"/>
<path fill="#E8E8EA" opacity="1.000000" stroke="none" 
	d="
M969.963318,1046.904541 
	C970.011597,1049.562134 969.345642,1051.976807 972.358337,1053.365967 
	C969.894043,1054.294434 968.021423,1054.237427 966.082336,1053.640503 
	C968.831360,1049.902344 968.758179,1047.670166 965.659668,1043.890625 
	C965.013855,1043.102783 965.527161,1042.652344 965.909607,1042.289673 
	C966.833069,1041.414429 967.450134,1040.006958 968.999756,1040.068848 
	C969.807068,1040.101318 969.954285,1040.795044 969.953857,1041.492188 
	C969.952820,1043.145752 969.959717,1044.799194 969.963318,1046.904541 
z"/>
<path fill="#E0E1E4" opacity="1.000000" stroke="none" 
	d="
M769.125122,1053.091675 
	C766.172729,1054.821533 765.426453,1052.854736 764.959473,1050.533691 
	C764.644531,1048.968384 765.347351,1047.356689 764.305786,1045.744873 
	C763.693054,1044.796509 764.716187,1043.391113 765.548706,1042.772583 
	C766.341125,1042.183838 766.745178,1043.437012 767.307007,1043.968994 
	C768.247620,1044.859863 769.231140,1044.877441 767.469238,1046.538818 
	C766.106689,1047.823730 766.134277,1051.247803 769.125122,1053.091675 
z"/>
<path fill="#E0E1E4" opacity="1.000000" stroke="none" 
	d="
M802.559326,1053.447266 
	C799.865784,1050.686035 801.445251,1047.363159 800.518677,1044.528564 
	C800.376099,1044.092407 801.230713,1042.921753 801.824219,1042.738525 
	C803.070557,1042.353394 802.904907,1044.121338 803.861694,1044.489746 
	C804.773926,1044.841187 804.835876,1045.112427 804.012146,1046.094604 
	C802.354248,1048.071289 802.190125,1050.283203 804.462402,1052.293701 
	C805.375366,1053.101318 805.169189,1053.334351 802.559326,1053.447266 
z"/>
<path fill="#E8E8EA" opacity="1.000000" stroke="none" 
	d="
M787.789795,1045.617798 
	C783.199890,1047.084351 786.281616,1051.772461 782.968811,1055.278564 
	C782.968811,1051.096924 782.842529,1048.260010 783.021606,1045.442383 
	C783.112488,1044.012451 785.600342,1043.998291 787.789795,1045.617798 
z"/>
<path fill="#D7D8DD" opacity="1.000000" stroke="none" 
	d="
M887.033813,1045.220459 
	C886.258240,1048.174561 886.060547,1051.815918 883.367249,1054.562378 
	C884.201233,1051.471802 883.407104,1047.828613 887.033813,1045.220459 
z"/>
<path fill="#21202F" opacity="1.000000" stroke="none" 
	d="
M957.983398,1043.001221 
	C959.717712,1044.609131 959.331055,1046.838867 958.569885,1048.406006 
	C958.021973,1049.534058 955.996704,1049.321777 954.361938,1048.074219 
	C954.038025,1046.236206 955.690552,1045.646851 956.650330,1044.220947 
	C957.155212,1043.787354 957.425049,1043.560425 957.868958,1043.138428 
	C958.031311,1042.929565 958.021606,1043.006104 957.983398,1043.001221 
z"/>
<path fill="#D7D8DD" opacity="1.000000" stroke="none" 
	d="
M217.274536,1034.173584 
	C216.861389,1033.695923 216.683914,1033.494995 216.506439,1033.294189 
	C216.305878,1033.612915 216.105331,1033.931519 215.914856,1034.530151 
	C212.871017,1033.874268 213.633881,1031.807129 214.711533,1029.367188 
	C218.871445,1028.258301 218.225143,1030.930908 218.127808,1033.596680 
	C217.903778,1034.167480 217.707001,1034.308960 217.274536,1034.173584 
z"/>
<path fill="#21202F" opacity="1.000000" stroke="none" 
	d="
M214.687592,1028.984497 
	C215.077301,1030.827148 215.151550,1032.653076 215.575363,1034.644531 
	C215.860535,1035.392822 215.796143,1035.975708 215.579407,1036.812988 
	C214.982697,1036.833984 214.591034,1036.532227 214.112686,1035.815186 
	C213.973190,1035.468384 213.597626,1035.244263 213.560516,1035.138184 
	C211.243790,1033.633545 212.402084,1031.612915 212.840149,1029.362793 
	C213.529892,1028.958984 213.951019,1028.963379 214.687592,1028.984497 
z"/>
<path fill="#21202F" opacity="1.000000" stroke="none" 
	d="
M217.120575,1034.183594 
	C217.214218,1033.931274 217.389603,1033.965698 217.832764,1034.013062 
	C219.292465,1034.223389 220.959167,1033.350220 221.438522,1035.175903 
	C221.663773,1036.033936 220.783661,1036.560913 219.942596,1036.850098 
	C217.634171,1037.643921 217.620514,1035.832153 217.120575,1034.183594 
z"/>
<path fill="#6B6B6B" opacity="1.000000" stroke="none" 
	d="
M212.749573,1029.057007 
	C213.144897,1030.704956 213.181030,1032.455444 213.370300,1034.619019 
	C209.532669,1033.771729 211.496017,1031.362427 212.749573,1029.057007 
z"/>
<path fill="#21202F" opacity="1.000000" stroke="none" 
	d="
M221.637299,1029.763916 
	C221.622772,1029.994263 221.494934,1030.120239 221.367096,1030.246338 
	C221.419403,1030.050781 221.471710,1029.855225 221.637299,1029.763916 
z"/>
<path fill="#D7D8DD" opacity="1.000000" stroke="none" 
	d="
M887.211121,1044.941162 
	C887.198059,1044.982178 887.111633,1044.844360 887.111633,1044.844360 
	C887.111633,1044.844360 887.143188,1045.038940 887.208130,1044.934082 
	C887.273010,1044.829346 887.224182,1044.900146 887.211121,1044.941162 
z"/>
<path fill="#E0E1E4" opacity="1.000000" stroke="none" 
	d="
M957.672424,1042.748291 
	C957.870728,1043.279785 957.710144,1043.629883 957.223267,1044.004150 
	C957.035828,1043.541138 957.174683,1043.054077 957.672424,1042.748291 
z"/>
<path fill="#6B6B6B" opacity="1.000000" stroke="none" 
	d="
M213.879227,1035.928711 
	C214.353012,1035.778442 214.732819,1036.088501 215.269836,1036.732910 
	C214.879791,1036.841309 214.332535,1036.615234 213.879227,1035.928711 
z"/>
<path fill="#21202F" opacity="1.000000" stroke="none" 
	d="
M219.550201,1027.465698 
	C219.584854,1027.522949 219.515564,1027.408447 219.550201,1027.465698 
z"/>
<path fill="#010100" opacity="1.000000" stroke="none" 
	d="
M748.245850,612.000122 
	C748.240173,625.831116 748.477600,639.167664 748.170959,652.491699 
	C747.725891,671.831299 732.998596,687.521790 714.440002,688.914551 
	C694.885254,690.382019 678.158630,677.428772 674.625244,657.992737 
	C674.211365,655.716370 674.109680,653.356689 674.109131,651.035522 
	C674.083984,550.552856 674.063660,450.070221 674.106201,349.587585 
	C674.114319,330.308472 688.003296,314.232239 706.181335,312.112946 
	C725.695312,309.837921 742.518921,321.522095 747.312073,340.628845 
	C748.215759,344.231384 748.238708,347.883118 748.239014,351.544708 
	C748.245728,438.196503 748.245117,524.848267 748.245850,612.000122 
z"/>
<path fill="#010100" opacity="1.000000" stroke="none" 
	d="
M327.147156,656.546387 
	C324.684418,666.423889 320.795715,674.979614 312.817169,680.949036 
	C300.569031,690.113037 287.250885,691.979126 273.422485,685.044495 
	C259.876221,678.251221 252.858414,666.962891 252.852829,651.704895 
	C252.815933,550.896973 252.832932,450.089081 252.845123,349.281189 
	C252.847473,329.887665 267.068146,313.734375 285.558319,312.049072 
	C305.641266,310.218567 322.293915,322.641754 326.232758,342.388519 
	C326.297668,342.713959 326.416138,343.028656 326.697510,343.669739 
	C327.879517,345.144897 327.478394,346.539795 327.478546,347.829651 
	C327.491699,450.263397 327.507568,552.697144 327.484314,655.130859 
	C327.484253,655.463135 327.441742,655.795471 327.147156,656.546387 
z"/>
<path fill="#010100" opacity="1.000000" stroke="none" 
	d="
M334.807098,483.000061 
	C334.806915,476.835785 334.960052,471.165558 334.743103,465.509583 
	C334.631439,462.599274 335.668335,461.584259 338.422211,461.979889 
	C338.911896,462.050293 339.420349,461.989716 339.920135,461.989716 
	C446.875732,461.989716 553.831360,462.024658 660.786743,461.873138 
	C665.493530,461.866486 666.419006,463.225800 666.374634,467.631561 
	C666.149780,489.953369 666.192383,512.279236 666.351624,534.602173 
	C666.376648,538.110901 665.405701,539.003540 661.925720,539.000488 
	C554.303772,538.907043 446.681763,538.903992 339.059906,539.004700 
	C335.413391,539.008057 334.705414,537.824402 334.735931,534.478210 
	C334.890961,517.486755 334.807190,500.493011 334.807098,483.000061 
z"/>
<path fill="#030301" opacity="1.000000" stroke="none" 
	d="
M764.196106,644.769165 
	C758.674377,637.427734 756.414551,629.427063 756.415710,620.666565 
	C756.426331,540.538635 756.385742,460.410736 756.426086,380.282806 
	C756.436096,360.300293 769.787842,344.353607 788.173096,342.027802 
	C807.391479,339.596649 824.818481,351.251251 829.452881,369.649414 
	C830.353394,373.224518 830.612915,376.880005 830.613342,380.551025 
	C830.622253,460.345764 830.653809,540.140503 830.602478,619.935242 
	C830.589661,639.829346 819.303101,654.632751 800.924438,658.336304 
	C786.274536,661.288330 774.044495,656.472717 764.196106,644.769165 
z"/>
<path fill="#010100" opacity="1.000000" stroke="none" 
	d="
M219.823792,657.034851 
	C194.408142,664.791077 170.598709,647.859375 170.569855,622.102173 
	C170.478897,540.944702 170.502914,459.786957 170.558533,378.629395 
	C170.571426,359.817780 184.890533,343.709381 202.806595,341.968262 
	C222.584824,340.046143 239.639023,352.076355 243.569672,370.901947 
	C244.209366,373.965698 244.283157,377.188873 244.284607,380.338501 
	C244.321259,460.329590 244.266754,540.320740 244.349426,620.311707 
	C244.367676,637.981812 236.313431,650.034912 219.823792,657.034851 
z"/>
<path fill="#020101" opacity="1.000000" stroke="none" 
	d="
M130.870819,451.807373 
	C139.683075,446.321045 148.905502,443.379883 158.936600,442.813446 
	C161.625107,442.661652 162.337555,443.470642 162.332764,446.088806 
	C162.266464,482.231079 162.248688,518.373718 162.373306,554.515686 
	C162.385101,557.931824 160.992508,558.153137 158.224960,558.043030 
	C132.453857,557.017578 108.698166,535.711853 105.147575,509.872589 
	C101.798767,485.501831 110.380409,466.148804 130.870819,451.807373 
z"/>
<path fill="#020101" opacity="1.000000" stroke="none" 
	d="
M854.765747,555.935425 
	C838.816040,559.941162 838.816711,559.941162 838.815979,544.231506 
	C838.814514,512.067261 838.901917,479.902466 838.704651,447.739410 
	C838.677917,443.375488 839.966736,442.426605 844.033569,442.909485 
	C867.292236,445.670990 883.918762,457.682983 892.495972,479.335205 
	C901.092712,501.036469 896.973511,521.226868 881.813049,538.954224 
	C874.715820,547.253113 865.657043,552.750366 854.765747,555.935425 
z"/>
<path fill="#FDF21E" opacity="1.000000" stroke="none" 
	d="
M327.174744,656.675354 
	C326.877106,555.612732 326.879700,454.260681 326.876404,352.908600 
	C326.876312,350.246643 326.811920,347.584656 326.831482,344.456909 
	C328.531403,345.438141 327.973969,347.390259 327.974365,349.154938 
	C327.998169,450.097107 327.998016,551.039246 327.974335,651.981445 
	C327.973999,653.449646 327.648132,654.917725 327.174744,656.675354 
z"/>
<path fill="#1A1B2C" opacity="1.000000" stroke="none" 
	d="
M163.872314,1038.781494 
	C167.388123,1037.312744 169.807831,1038.253296 171.169083,1041.316772 
	C172.625320,1044.593994 172.486847,1047.894653 169.860672,1050.563843 
	C167.436737,1053.027466 163.508652,1052.266602 161.964737,1049.004395 
	C160.266953,1045.417236 160.448380,1041.919922 163.872314,1038.781494 
z"/>
<path fill="#161728" opacity="1.000000" stroke="none" 
	d="
M63.558918,1043.907715 
	C61.487099,1044.114136 59.779388,1044.393433 58.185394,1044.084961 
	C56.478104,1043.754761 53.716431,1045.576660 53.232422,1042.769775 
	C52.876740,1040.706909 54.399334,1038.539062 56.398235,1037.502808 
	C58.614365,1036.353882 60.966785,1036.531250 62.697437,1038.628418 
	C63.891605,1040.075439 64.480675,1041.791138 63.558918,1043.907715 
z"/>
<path fill="#161728" opacity="1.000000" stroke="none" 
	d="
M97.086884,1044.211304 
	C98.769287,1038.043335 101.264191,1036.071289 105.630562,1037.067993 
	C109.286377,1037.902588 111.550491,1042.032837 110.860504,1046.608521 
	C110.180695,1051.116699 107.186348,1053.654297 102.999619,1053.048340 
	C98.133797,1052.343994 97.235191,1048.702637 97.086884,1044.211304 
z"/>
<path fill="#1A1B2C" opacity="1.000000" stroke="none" 
	d="
M937.014038,1050.938354 
	C934.215576,1053.034546 932.685547,1051.777344 932.246826,1049.260620 
	C931.810547,1046.757568 931.185486,1043.776611 934.013306,1042.197388 
	C935.848694,1041.172485 937.162781,1042.610596 937.618225,1044.361328 
	C938.156189,1046.428955 938.293091,1048.567993 937.014038,1050.938354 
z"/>
<path fill="#21202F" opacity="1.000000" stroke="none" 
	d="
M811.171692,1045.962158 
	C814.702881,1046.059814 815.511536,1047.857910 814.463440,1050.504395 
	C813.725830,1052.366699 811.860657,1052.792725 810.441589,1051.656128 
	C808.225159,1049.880981 808.415527,1047.791870 811.171692,1045.962158 
z"/>
<path fill="#21202F" opacity="1.000000" stroke="none" 
	d="
M777.474243,1051.725830 
	C775.050659,1052.495239 773.587769,1051.895264 773.115845,1049.673950 
	C772.825500,1048.307251 773.158203,1047.047241 774.419495,1046.281250 
	C775.465820,1045.645874 776.709167,1045.582275 777.622131,1046.390015 
	C779.394104,1047.957764 779.295227,1049.754517 777.474243,1051.725830 
z"/>
<path fill="#21202F" opacity="1.000000" stroke="none" 
	d="
M861.516724,1047.485352 
	C862.152405,1049.797363 861.787659,1051.426880 859.606873,1052.027344 
	C858.189758,1052.417603 857.015503,1051.878418 856.373413,1050.528076 
	C855.772522,1049.264404 855.784302,1047.911621 856.785217,1046.892578 
	C858.306824,1045.343262 859.895874,1045.370972 861.516724,1047.485352 
z"/>
</svg>